<?xml version="1.0" encoding="utf-8"?>
<!-- Generator: Adobe Illustrator 24.3.0, SVG Export Plug-In . SVG Version: 6.00 Build 0)  -->
<svg version="1.1" id="Layer_1" xmlns="http://www.w3.org/2000/svg" xmlns:xlink="http://www.w3.org/1999/xlink" x="0px" y="0px"
	 viewBox="0 0 512 512" style="enable-background:new 0 0 512 512;" xml:space="preserve">
<g>
	<path d="M76.8,128H128v256H76.8V128z M307.2,128h25.6v256h-25.6V128z M204.8,128h76.8v256h-76.8V128z M153.6,128h25.6v256h-25.6
		V128z M358.4,128h76.8v256h-76.8V128z"/>
	<path d="M51.2,76.8h102.4V25.6H51.2C22.95,25.6,0,48.58,0,76.8v102.4h51.2V76.8z M51.2,486.4h102.4v-51.2H51.2V332.8H0v102.4
		C0,463.45,22.95,486.4,51.2,486.4z M460.8,25.6H358.4v51.2h102.4v102.4H512V76.8C512,48.58,489.02,25.6,460.8,25.6z M460.8,435.2
		H358.4v51.2h102.4c28.23,0,51.2-22.95,51.2-51.2V332.8h-51.2V435.2z"/>
</g>
</svg>
